<?xml version="1.0" encoding="UTF-8" standalone="no"?><!DOCTYPE svg PUBLIC "-//W3C//DTD SVG 1.1//EN" "http://www.w3.org/Graphics/SVG/1.1/DTD/svg11.dtd"><svg width="100%" height="100%" viewBox="0 0 284 42" version="1.1" xmlns="http://www.w3.org/2000/svg" xmlns:xlink="http://www.w3.org/1999/xlink" xml:space="preserve" xmlns:serif="http://www.serif.com/" style="fill-rule:evenodd;clip-rule:evenodd;stroke-linejoin:round;stroke-miterlimit:2;"><path d="M283.464,40.981l-3.203,0l-13.047,-19.403c-2.461,-3.672 -4.98,-7.748 -4.98,-7.748c0,0 0.115,4.076 0.115,7.748l0,19.403l-6.638,0l0,-33.635c0,-1.721 -0.17,-2.697 -0.686,-3.9c-0.744,-1.608 -1.891,-2.717 -1.891,-2.717l9.27,0l9.387,13.676c2.517,3.616 5.209,7.86 5.209,7.86c0,-0 -0.172,-4.244 -0.172,-7.86l0,-13.676l6.636,0l-0,40.252Zm-275.511,0l-7.953,0l0,-40.635c6.409,0 10.243,-0.346 13.275,-0.346c8.24,-0 14.25,3.559 14.25,12.34c-0,5.279 -3.205,9.41 -7.898,10.672c0,0 1.201,1.436 1.945,3.1l6.924,14.869l-8.926,0l-7.669,-16.533c-1.945,-4.19 -3.204,-5.05 -3.204,-5.05c0.802,0.057 1.546,0.057 2.175,0.057c5.779,0 8.526,-2.641 8.526,-6.886c0,-4.246 -3.033,-6.141 -7.497,-6.141c-2.345,0 -3.948,0.172 -3.948,0.172l0,34.381Zm169.056,-40.252l7.955,0l-0.003,40.252l-7.952,0l-0,-40.252Zm69.661,33.533l-1.604,6.719l-20.086,0l0,-40.235l21.232,0l-1.546,6.6l-11.788,0l-0,10.042l11.274,0l-1.545,6.486l-9.729,0l-0,10.388l13.792,0Zm-149.832,-10.388l0,17.107l-7.897,0l-0,-40.252l21.23,0l-1.487,6.617l-11.846,0l0,10.042l11.273,0l-1.488,6.486l-9.785,0Zm28.785,0l0,17.107l-8.013,0l0,-40.252l21.231,0l-1.488,6.617l-11.73,0l0,10.042l11.215,0l-1.488,6.486l-9.727,0Zm-55.51,-23.145l7.955,0l-0,40.252l-7.955,0l-0,-40.252Zm98.084,33.533l-1.602,6.719l-20.086,0l-0,-40.252l21.231,0l-1.602,6.617l-11.73,0l-0,10.042l11.273,0l-1.547,6.486l-9.726,0l-0,10.388l13.789,0Zm-103.605,6.719l-8.813,0l-2.117,-7.523l-12.233,0l-2.06,7.523l-7.382,0l10.644,-35.125c0.287,-0.977 0.458,-1.551 0.458,-2.125c0,-1.608 -1.144,-3.002 -1.144,-3.002l9.728,0l12.919,40.252Zm-12.332,-13.318l-3.627,-12.667c-0.515,-1.779 -1.088,-4.562 -1.088,-4.562c0,-0 -0.572,2.783 -1.086,4.562l-3.599,12.667l9.4,0Zm142.966,5.232c0,0 2.502,2.186 7.467,2.186c3.994,0 5.935,-2.356 5.935,-5.231c-0,-2.761 -2.439,-4.377 -4.656,-5.582l-3.125,-1.697c-5.025,-2.729 -7.166,-6.11 -7.166,-10.34c0,-7.535 5.067,-12.231 12.332,-12.231c5.905,-0 9.367,2.014 9.367,2.014l-1.533,6.613c-1.929,-1.668 -4.271,-2.242 -6.826,-2.242c-3.463,0 -5.459,2.188 -5.459,4.949c0,2.229 1.215,3.502 3.201,4.537l3.862,2.014c6.086,3.169 8.173,6.499 8.173,11.213c-0,7.676 -5.5,12.426 -13.82,12.426c-6.162,0 -9.365,-1.83 -9.365,-1.83l1.613,-6.799Z" style="fill:#ee3123;"/></svg>